<?xml version="1.0" encoding="utf-8"?>
<svg width="2309.271" height="1316.351" viewBox="0 0 2309.271 1316.351" fill="none" xmlns="http://www.w3.org/2000/svg">
  <g>
    <g>
      <path
        d="M2090.42 13
        14.45C2086.46 1313.4 2075.76 1310.23 2066.65 1307.45C2023.6 1294.11 1968.52 1280.78 1902.89 1267.83C1895.23 1266.25 1868.28 1260.96 1842.8 1255.81C1791.95 1245.78 1770.42 1242.08 1729.88 1236.14C1714.95 1233.89 1689.46 1230.06 1673.09 1227.55C1622.24 1219.63 1528.74 1208.27 1492.82 1205.63C1482.65 1204.84 1472.87 1203.91 1471.16 1203.52C1469.44 1203.12 1459.01 1202.33 1448.04 1201.67C1437.08 1201.01 1418.59 1199.82 1406.97 1199.16C1382.54 1197.57 1344.11 1195.33 1325.09 1194.4C1317.83 1194.01 1301.18 1192.95 1288.11 1192.16C1245.98 1189.52 1005.35 1190.18 958.601 1193.08C953.186 1193.48 940.111 1194.01 929.546 1194.4C918.98 1194.8 900.358 1195.59 887.944 1196.38C875.662 1197.18 855.984 1198.23 844.362 1199.02C810.948 1201.01 757.857 1205.5 734.745 1208.27C723.123 1209.59 709.52 1211.04 704.37 1211.57C699.351 1211.97 690.37 1212.89 684.559 1213.55C678.748 1214.34 658.014 1216.59 638.336 1218.84C618.789 1221.08 593.168 1224.38 581.546 1226.23C569.924 1227.95 548.793 1231.25 534.662 1233.36C520.531 1235.48 503.23 1238.12 496.362 1239.31C489.495 1240.36 478.137 1242.21 471.27 1243.27C464.402 1244.32 454.233 1246.04 448.818 1247.1C443.403 1248.15 429.14 1250.93 417.122 1253.17C356.238 1264.53 330.353 1269.95 290.997 1279.59C281.62 1281.83 268.809 1284.87 262.602 1286.32C246.622 1290.02 238.17 1292.26 227.34 1295.3C210.303 1300.19 204.228 1298.74 189.568 1286.98C185.606 1283.68 181.909 1280.91 181.512 1280.91C181.116 1280.91 172.796 1274.83 163.023 1267.44C153.118 1259.91 139.251 1249.74 132.251 1244.59C125.119 1239.57 118.78 1234.95 117.988 1234.42C113.365 1230.85 103.064 1223.19 101.347 1222.14C97.385 1219.76 75.7259 1205.1 75.0655 1204.31C74.6693 1203.91 69.1225 1200.08 62.5191 1195.72C56.0477 1191.36 50.3688 1187.53 49.9726 1187.14C49.5764 1186.74 48.3878 1185.95 47.1992 1185.16C45.8785 1184.5 42.1806 1181.86 38.8789 1179.61C35.4451 1177.23 32.4076 1175.25 32.0114 1175.25C31.6152 1175.25 27.1248 1172.08 21.8421 1168.25C14.8425 1163.1 11.4087 1159.4 9.03152 1154.65C9.03152 1154.65 5.72982 1148.18 5.72982 1148.18C5.72982 1148.18 4.93741 1072.9 4.93741 1072.9C4.40914 1031.56 4.01294 953.643 3.88087 899.891C3.7488 846.139 2.82433 719.618 1.76778 618.586C0.579169 517.554 -0.213239 401.73 0.0508973 361.053C0.447101 276.134 -0.477375 282.737 13.6539 273.492C21.1818 268.606 40.4637 258.833 62.7832 248.664C68.4621 246.022 78.4993 241.4 84.9706 238.362C110.46 226.212 117.195 223.042 117.856 223.042C118.252 223.042 124.459 220.269 131.459 216.967C143.873 211.156 148.363 209.043 160.249 203.893C165.4 201.647 171.079 199.138 182.305 194.12C185.474 192.667 191.549 190.025 195.908 188.044C200.266 186.063 206.605 183.422 209.907 182.101C213.341 180.781 218.888 178.403 222.453 176.819C229.717 173.517 234.34 171.668 238.17 170.215C240.679 169.291 249.263 165.989 255.338 163.612C256.791 163.084 260.093 161.895 262.602 160.97C265.111 160.046 268.413 158.857 269.866 158.329C271.319 157.669 279.903 154.367 289.016 151.065C298.128 147.632 306.713 144.33 308.166 143.67C314.769 140.632 364.823 123.727 386.746 117.124C389.255 116.331 392.557 115.275 394.01 114.747C395.463 114.218 411.839 108.804 430.328 102.861C448.818 96.9175 465.459 91.5027 467.308 90.8423C471.137 89.5217 485.401 85.9558 493.061 84.371C504.815 81.9938 547.341 71.0321 549.454 69.8435C550.774 69.0511 553.152 68.5229 554.869 68.5229C556.585 68.5229 558.434 68.1266 558.831 67.7304C560.283 66.2777 592.772 58.3536 609.281 55.4481C647.58 48.8447 657.75 46.9958 672.673 44.0903C714.143 36.0341 726.029 33.921 750.593 30.2231C765.121 28.11 780.573 25.7328 784.931 24.9404C789.289 24.148 801.175 22.6953 811.345 21.5066C827.721 19.6577 835.117 18.7332 852.946 16.356C855.455 16.0919 870.115 14.507 885.303 13.0543C900.623 11.6015 918.716 9.75259 925.583 9.09225C939.186 7.63951 983.165 4.46987 1021.33 2.35679C1034.41 1.56438 1083.67 0.639902 1130.82 0.243698C1199.23 -0.284573 1225.38 -0.0204375 1260.9 1.69645C1285.34 2.88506 1307.66 4.20574 1310.56 4.46987C1313.47 4.73401 1323.9 5.65849 1333.67 6.45089C1343.45 7.2433 1356.52 8.43191 1362.73 9.09225C1368.94 9.88466 1381.75 10.9412 1391.12 11.7336C1400.63 12.526 1412.78 13.7146 1418.2 14.375C1423.61 15.1674 1439.46 16.8843 1453.2 18.337C1476.57 20.8463 1487.93 22.167 1521.87 26.9214C1545.11 30.2231 1580.11 36.2983 1581.96 37.4869C1584.34 38.9396 1623.83 45.9392 1653.94 50.0333C1667.81 52.0144 1685.5 55.316 1688.28 56.5047C1689.73 57.165 1694.22 58.3536 1698.18 59.2781C1702.14 60.2026 1706.11 61.3912 1706.77 61.9194C1707.56 62.4477 1709.94 63.2401 1712.05 63.6363C1714.29 64.0325 1718.12 64.957 1720.63 65.7494C1733.58 69.4473 1757.88 75.1263 1780.59 79.7486C1785.61 80.8052 1793.93 82.9183 1799.08 84.5031C1804.23 86.0879 1812.29 88.5972 1817.04 90.0499C1821.8 91.3706 1830.65 94.2761 1836.85 96.2571C1843.06 98.2382 1850.46 100.483 1853.36 101.276C1856.27 102.068 1864.32 104.445 1871.19 106.558C1878.06 108.672 1888.23 111.709 1893.64 113.294C1899.06 114.879 1904.6 116.728 1905.79 117.388C1907.11 118.18 1908.96 118.709 1910.02 118.709C1910.94 118.709 1916.23 120.426 1921.51 122.539C1930.62 126.104 1962.45 137.726 1972.88 141.292C1978.17 143.141 1977.11 142.745 2000.62 151.726C2010.39 155.424 2022.67 160.178 2027.69 162.291C2032.84 164.404 2040.9 167.574 2045.92 169.423C2072.73 179.724 2076.95 181.309 2085.8 185.403C2100.2 192.006 2112.87 197.949 2137.31 209.836C2152.63 217.363 2168.08 224.759 2171.65 226.476C2175.34 228.193 2179.3 230.174 2180.63 230.966C2183.4 232.551 2184.06 232.947 2203.34 242.985C2212.06 247.475 2234.38 258.701 2253 268.078C2271.49 277.454 2288.26 286.435 2290.24 288.152C2292.22 289.869 2295 294.227 2296.32 297.793C2299.09 304.925 2299.35 312.849 2301.07 450.86C2301.47 481.367 2302.39 542.251 2303.05 586.229C2304.9 709.713 2305.56 779.973 2306.35 930.266C2306.75 1006.6 2307.68 1088.48 2308.47 1112.26C2309.26 1136.16 2309.52 1157.95 2309 1160.73C2307.68 1168.65 2303.58 1171.95 2242.43 1216.85C2212.72 1238.65 2167.82 1272.19 2153.42 1283.55C2126.61 1304.55 2115.52 1312.21 2108.78 1314.58C2102.18 1316.96 2099.8 1316.96 2090.42 1314.45C2090.42 1314.45 2090.42 1314.45 2090.42 1314.45ZM2099.14 1253.04C2101.39 1251.72 2107.99 1246.97 2113.67 1242.61C2119.48 1238.25 2124.76 1234.29 2125.42 1233.76C2126.21 1233.1 2136.25 1225.57 2147.87 1216.85C2159.49 1208.27 2169.27 1200.74 2169.66 1200.35C2170.06 1199.95 2173.89 1197.04 2178.25 1193.87C2182.61 1190.57 2186.44 1187.67 2186.83 1187.14C2187.23 1186.74 2197.27 1178.95 2209.28 1169.97C2241.25 1146.07 2247.32 1141.05 2250.75 1136.03C2250.75 1136.03 2253.92 1131.54 2253.92 1131.54C2253.92 1131.54 2253.26 921.286 2253.26 921.286C2252.47 691.091 2253.13 707.072 2244.55 700.6C2239.26 696.506 2233.59 696.242 2213.91 699.279C2190.4 702.845 2157.65 706.147 2132.02 707.6C2118.29 708.392 2104.55 709.317 2101.65 709.713C2098.74 709.977 2080.65 711.166 2061.37 712.354C2042.09 713.411 2018.84 714.996 2009.6 715.656C2000.35 716.448 1984.37 717.637 1973.94 718.297C1963.51 718.958 1939.07 720.674 1919.4 722.127C1875.81 725.429 1803.97 729.655 1759.59 731.504C1741.5 732.297 1710.86 733.749 1691.58 734.806C1658.56 736.655 1629.24 737.711 1536.4 740.749C1514.61 741.409 1489.12 742.334 1479.61 742.73C1432.86 744.579 1410.8 745.107 1346.88 746.032C1261.43 747.352 1043.78 746.56 1008.79 744.711C994.655 744.051 962.299 742.862 936.809 742.202C894.812 740.881 842.381 739.164 742.009 735.466C680.333 733.221 590.659 728.334 549.19 724.901C540.077 724.108 524.361 722.92 514.192 722.259C478.269 719.882 424.253 715.656 412.499 714.335C406.028 713.675 393.218 712.486 384.105 711.694C340.39 708.26 313.184 705.883 294.959 703.77C289.148 702.977 266.3 700.336 244.113 697.827C189.569 691.487 164.08 688.318 148.363 685.941C141.1 684.884 128.685 683.035 120.629 681.979C112.705 680.922 100.159 679.205 92.8949 678.149C65.5568 674.055 58.6893 675.903 51.9538 689.903C51.9538 689.903 48.388 697.166 48.388 697.166C48.388 697.166 49.1804 762.804 49.1804 762.804C49.5766 798.991 50.369 844.29 50.7652 863.572C51.1614 882.854 51.9538 948.228 52.6141 1009.11C53.9348 1129.43 53.5386 1124.54 61.5948 1132.33C63.8399 1134.58 76.1222 1143.56 88.9328 1152.14C101.743 1160.86 117.988 1171.95 124.987 1176.97C131.987 1181.86 139.911 1187.27 142.42 1189.12C144.93 1190.84 150.344 1194.67 154.307 1197.57C158.269 1200.61 164.608 1204.97 168.174 1207.48C171.872 1209.99 180.72 1216.85 188.116 1222.53C207.002 1237.32 213.209 1241.42 218.095 1242.08C220.737 1242.61 231.962 1240.36 248.735 1236C263.263 1232.31 280.564 1228.08 287.035 1226.63C312.392 1220.95 323.221 1218.57 336.56 1216.06C381.596 1207.48 393.218 1205.23 410.915 1201.67C432.574 1197.31 462.685 1192.29 485.797 1189.25C494.117 1188.06 504.551 1186.61 508.909 1185.82C513.267 1185.16 521.588 1183.97 527.399 1183.18C533.21 1182.38 538.889 1181.46 539.945 1181.06C541.794 1180.4 562.925 1176.97 572.962 1175.78C589.735 1173.67 600.432 1172.22 612.582 1170.5C633.845 1167.59 645.335 1166.14 672.673 1163.37C686.541 1162.05 703.709 1160.2 710.973 1159.4C732.5 1157.03 779.12 1152.93 806.722 1150.82C820.854 1149.76 835.117 1148.57 838.155 1148.18C841.324 1147.65 856.512 1146.73 871.832 1146.07C887.284 1145.41 911.716 1144.22 926.244 1143.56C993.334 1140.39 1028.07 1139.73 1120.38 1139.73C1257.47 1139.73 1345.96 1142.37 1432.72 1148.97C1481.33 1152.67 1549.21 1158.88 1560.17 1160.73C1564.53 1161.39 1573.11 1162.31 1579.32 1162.84C1585.53 1163.23 1599.53 1164.69 1610.36 1166.14C1621.32 1167.59 1637.3 1169.71 1646.01 1170.76C1682.73 1175.38 1691.18 1176.44 1695.54 1177.23C1703.07 1178.55 1714.16 1180.4 1723.67 1181.86C1745.86 1185.29 1755.63 1186.87 1781.38 1191.23C1784.69 1191.76 1791.16 1192.82 1795.91 1193.61C1807.27 1195.46 1825.89 1199.02 1854.02 1204.7C1866.7 1207.21 1884.27 1210.65 1892.98 1212.23C1901.7 1213.82 1913.32 1215.93 1918.73 1217.12C1924.15 1218.31 1931.02 1219.63 1933.92 1220.16C1945.54 1222.4 1964.56 1226.63 1992.69 1233.36C1995.2 1233.89 2002.99 1235.74 2009.86 1237.32C2025.31 1240.76 2049.22 1246.7 2063.35 1250.53C2089.23 1257.66 2091.22 1257.8 2099.14 1253.04C2099.14 1253.04 2099.14 1253.04 2099.14 1253.04ZM1412.25 691.62C1447.12 690.827 1479.21 690.035 1483.57 689.903C1487.93 689.639 1511.7 688.714 1536.4 687.922C1585 686.469 1605.87 685.677 1629.51 684.62C1655.52 683.431 1674.28 682.639 1694.88 681.979C1705.84 681.583 1730.8 680.394 1750.35 679.337C1770.03 678.281 1795.78 677.092 1807.8 676.696C1819.82 676.3 1837.65 675.375 1847.42 674.715C1857.19 673.923 1881.62 672.47 1901.57 671.413C1921.51 670.357 1940 669.168 1942.51 668.772C1945.02 668.376 1959.02 667.583 1973.54 666.791C1988.07 665.998 2005.9 664.942 2013.16 664.15C2037.46 661.772 2077.22 658.735 2114.86 656.225C2125.82 655.433 2140.08 654.244 2146.55 653.584C2153.16 652.924 2165.04 651.735 2172.97 650.943C2202.68 647.905 2231.87 642.358 2239.66 638.396C2241.64 637.34 2244.81 634.038 2246.92 631C2246.92 631 2250.62 625.322 2250.62 625.322C2250.62 625.322 2249.83 547.93 2249.83 547.93C2249.3 505.404 2248.64 441.219 2248.11 405.296C2247.72 369.374 2247.19 338.074 2246.79 335.828C2246 330.15 2239.92 321.433 2233.98 317.471C2231.34 315.622 2221.3 310.075 2211.66 305.057C2202.02 300.038 2191.19 294.227 2187.49 292.114C2178.12 286.699 2131.89 263.983 2130.18 263.983C2129.38 263.983 2128.72 263.455 2128.72 262.663C2128.72 262.002 2128.06 261.342 2127.27 261.342C2126.48 261.342 2118.69 257.776 2109.84 253.55C2100.99 249.324 2088.97 243.645 2083.16 240.872C2077.35 238.23 2069.56 234.532 2065.86 232.815C2062.16 231.099 2058.73 229.646 2058.2 229.646C2057.54 229.646 2055.29 228.853 2053.05 227.797C2050.67 226.74 2044.33 224.099 2038.92 221.986C2020.03 214.59 2003.92 208.119 1998.64 205.874C1995.73 204.685 1991.24 202.836 1988.73 202.044C1986.22 201.119 1982.92 199.798 1981.47 199.138C1973.54 195.704 1950.83 187.12 1940.53 183.686C1934.05 181.573 1927.19 179.064 1925.34 178.403C1923.49 177.611 1913.98 174.573 1904.21 171.536C1894.43 168.498 1884.93 165.461 1883.08 164.932C1881.23 164.272 1872.64 161.631 1863.93 158.989C1855.21 156.216 1843.98 152.65 1838.83 150.801C1833.82 149.084 1827.61 146.971 1825.36 146.311C1822.99 145.651 1819.02 144.594 1816.78 143.934C1805.82 140.764 1786.67 135.481 1780.06 133.896C1776.1 132.972 1765.67 130.331 1756.95 128.085C1748.24 125.972 1732.78 122.01 1722.61 119.501C1712.44 116.992 1696.07 112.898 1686.3 110.388C1661.99 104.181 1658.3 103.389 1628.45 98.8985C1614.19 96.6533 1591.47 92.4271 1578 89.6537C1564.53 86.7482 1541.68 82.6541 1527.15 80.409C1512.63 78.2959 1497.44 75.7866 1493.48 75.1262C1485.42 73.5414 1472.87 71.9566 1453.2 69.7114C1445.93 68.919 1437.88 67.8625 1435.37 67.2022C1430.08 65.8815 1395.35 62.4477 1369.99 60.5988C1360.62 59.9384 1347.14 58.7498 1340.28 57.9574C1333.41 57.2971 1314.66 55.9764 1298.68 55.316C1282.7 54.5236 1258.66 53.4671 1245.19 52.8067C1186.15 49.7692 1051.71 50.8257 993.598 54.7878C933.375 58.8819 866.285 65.0891 833.796 69.7114C828.778 70.5039 817.684 71.9566 809.364 73.1452C801.043 74.2018 790.61 75.7866 786.252 76.4469C781.893 77.1073 772.649 78.56 765.781 79.7486C744.518 83.0503 713.878 88.201 707.671 89.6537C704.37 90.4461 698.823 91.5027 695.125 92.2951C691.559 92.9554 684.691 94.4082 679.937 95.5968C675.182 96.6533 660.655 99.2947 647.58 101.54C634.506 103.653 620.506 106.162 616.544 106.955C606.771 108.936 544.303 124.388 525.417 129.406C517.097 131.651 508.117 134.029 505.607 134.557C501.117 135.613 466.383 144.99 456.742 147.764C442.083 151.99 410.122 162.291 403.651 164.8C401.934 165.461 392.557 168.498 382.784 171.668C358.88 179.064 343.956 184.082 335.24 187.384C322.561 192.271 307.109 198.082 300.902 200.195C285.714 205.477 225.755 229.25 211.36 235.721C207.53 237.438 204.096 238.891 203.7 238.891C203.304 238.891 199.87 240.343 196.172 241.928C192.342 243.645 182.173 248.267 173.456 252.097C164.74 255.927 153.25 261.078 147.967 263.455C142.552 265.964 137.534 267.945 136.609 267.945C135.817 267.945 134.496 268.474 133.704 269.134C133.043 269.794 122.742 274.549 110.724 279.832C62.6512 300.83 53.1423 306.641 49.4444 317.207C48.2557 320.773 47.9916 354.45 48.3878 462.085C48.784 598.908 48.784 602.474 51.4254 609.473C54.4629 617.53 62.255 625.189 68.8584 626.378C71.2356 626.774 80.4803 627.699 89.593 628.491C104.517 629.68 117.591 631.265 142.42 635.095C147.175 635.755 161.966 637.604 175.437 639.057C188.908 640.509 204.36 642.358 209.775 643.019C218.623 644.207 236.849 646.188 269.206 649.622C285.846 651.339 306.052 653.32 339.202 656.225C355.578 657.678 385.293 660.452 405.236 662.301C425.178 664.15 451.327 666.263 463.345 666.923C475.364 667.583 488.703 668.772 493.061 669.432C497.419 670.225 515.248 671.413 532.681 672.074C550.114 672.734 569.396 673.923 575.603 674.715C581.81 675.375 596.074 676.3 607.3 676.696C618.525 677.092 638.732 678.017 652.203 678.809C685.484 680.526 730.387 682.375 763.8 683.299C779.12 683.696 794.572 684.356 798.138 684.62C804.873 685.412 861.53 687.261 931.527 689.242C953.318 689.903 1009.84 690.959 1056.99 691.752C1104.27 692.544 1147.06 693.469 1152.08 693.733C1168.46 694.525 1346.75 693.072 1412.25 691.62C1412.25 691.62 1412.25 691.62 1412.25 691.62Z"
        fill="currentColor" />
      <path
        d="M12.6785 471.877C7.65991 470.82 2.77344 469.367 1.84888 468.575C0.26416 467.254 0 430.275 0 236.135C0 236.135 0 5.14844 0 5.14844C0 5.14844 3.0376 3.2995 3.0376 3.2995C4.62231 2.24298 11.2258 0.922302 17.9612 0.526062C29.3191 -0.398376 30.2437 -0.266357 31.5642 2.24298C33.1489 5.14844 33.8093 467.915 32.2246 471.877C31.3 474.386 25.6211 474.386 12.6785 471.877C12.6785 471.877 12.6785 471.877 12.6785 471.877Z"
        fill="currentColor" transform="translate(2074.575 732.959)" />
      <path
        d="M112.39 452.201L101.296 449.956C101.296 449.956 99.4471 443.352 99.4471 443.352C98.5227 439.786 97.0699 434.636 96.4097 432.126C95.7493 429.617 93.3721 419.184 91.1268 409.015C88.8817 398.845 85.8441 385.506 84.3914 379.299C82.9387 373.092 80.8256 364.244 79.769 359.489C78.7125 354.735 77.2598 348.792 76.5994 346.282C75.9391 343.773 73.5619 334 71.3167 324.491C67.7509 308.907 64.7133 296.096 50.8462 237.987C33.017 163.5 34.6018 169.311 33.017 169.311C32.4888 169.311 32.2246 228.346 32.6207 300.455C33.149 413.901 33.017 431.862 31.3 433.975C29.4512 436.485 28.7908 436.485 17.6971 434.768C11.2258 433.843 4.62244 432.259 3.0376 431.202C3.0376 431.202 0 429.485 0 429.485C0 429.485 0 223.723 0 223.723C0 61.1475 0.39624 17.433 1.71692 15.8481C3.30176 13.735 20.9988 10.9617 27.4701 11.8861C30.9039 12.4144 33.2811 17.0367 35.3942 27.3381C36.1866 31.036 38.828 42.9221 41.4694 53.7517C43.9786 64.7133 48.469 83.9952 51.3744 96.6738C54.2799 109.352 59.9589 133.521 64.053 150.161C68.015 166.934 74.3542 193.348 78.0521 208.932C93.5042 273.777 96.1455 282.493 96.6737 269.683C96.8058 266.381 96.9379 205.366 96.9379 134.049C97.0699 30.7719 97.4662 3.96204 98.7869 2.64136C99.8434 1.58484 105.39 0.792419 114.107 0.528259C114.107 0.528259 127.71 0 127.71 0C127.71 0 128.634 4.2262 128.634 4.2262C129.955 11.3578 129.559 447.446 128.106 451.144C126.653 455.106 127.049 455.106 112.39 452.201C112.39 452.201 112.39 452.201 112.39 452.201Z"
        fill="currentColor" transform="translate(1912.132 741.805)" />
      <path
        d="M0.824966 455.928C-0.495712 453.815 -0.0995026 2.27454 1.08911 1.08594C3.07013 -0.895081 5.44736 -0.763 85.2164 6.63281C92.4801 7.29315 100.008 7.82141 101.989 7.95349C109.121 7.95349 109.649 9.80243 109.649 36.2161C109.649 54.0452 109.253 60.9127 107.932 62.6296C106.215 64.8748 104.762 65.0068 83.1033 63.5541C70.4248 62.7617 54.1805 61.9693 46.9167 61.8372C46.9167 61.8372 33.7099 61.441 33.7099 61.441C33.7099 61.441 33.3137 124.702 33.3137 124.702C33.1816 170.265 33.4458 188.49 34.5023 189.679C35.6909 191.132 41.7661 191.528 63.029 191.528C79.1413 191.528 91.0274 192.056 92.6122 192.849C94.9895 194.169 95.1215 195.886 95.1215 219.13C95.1215 237.488 94.7253 244.355 93.5367 245.412C92.6122 246.072 79.4054 247.129 64.2176 247.657C49.0298 248.185 35.823 248.846 34.8985 249.242C33.3137 249.77 33.0496 266.807 33.0496 349.217C33.0496 426.741 32.6534 449.061 31.4648 450.645C29.8799 452.626 26.182 453.419 6.50389 456.588C3.73047 456.985 1.35324 456.72 0.824966 455.928C0.824966 455.928 0.824966 455.928 0.824966 455.928Z"
        fill="currentColor" transform="translate(197.856 738.078)" />
      <path
        d="M63.488 416.475C48.3001 410.928 37.6026 399.306 26.7731 376.326C15.019 351.497 5.64218 310.028 1.41602 263.936C-1.62155 230.787 0.491516 155.641 5.24597 127.378C5.90631 123.02 7.09494 115.888 7.75528 111.53C10.1325 96.0779 16.3397 70.4568 19.6414 62.6647C20.3017 61.212 21.6224 57.9103 22.5469 55.401C25.8486 46.0242 35.2254 28.0629 40.5081 21.0634C47.1115 11.9507 55.5639 4.95105 63.62 1.91351C72.4686 -1.38818 86.7319 -0.331665 95.9767 4.42279C118.296 15.9127 138.106 56.5897 148.408 112.19C157.124 159.867 158.313 235.41 151.181 287.18C141.804 354.403 119.353 403.136 92.4109 415.022C84.3547 418.456 70.8838 419.248 63.488 416.475C63.488 416.475 63.488 416.475 63.488 416.475ZM86.5999 359.686C101.127 350.309 112.353 317.424 117.504 270.012C120.277 244.39 120.673 185.092 118.296 159.471C114.466 119.454 107.467 85.9088 100.203 73.0981C93.2033 60.6838 83.8265 54.6086 74.8459 56.3255C69.5632 57.3821 59.526 67.4193 55.9602 75.2112C39.9799 109.549 31.9238 187.733 36.9424 258.125C40.9044 313.462 53.1867 352.554 69.0349 360.346C76.2986 364.044 80.2607 363.78 86.5999 359.686C86.5999 359.686 86.5999 359.686 86.5999 359.686Z"
        fill="currentColor" transform="translate(316.787 750.061)" />
      <path
        d="M63.855 399.12C55.6667 396.083 48.4031 390.536 40.2148 380.763C22.5177 359.764 8.91467 317.766 2.97168 265.863C-2.44312 218.055 -0.197998 134.852 7.59399 100.118C12.7446 77.2704 14.8578 69.3463 18.1594 61.1581C18.6877 59.7054 19.8763 56.4037 20.8008 53.8944C23.3102 46.3665 30.1776 32.6314 34.8 25.4998C50.384 1.3313 75.7411 -6.72479 96.3438 5.95374C121.173 21.2736 137.681 65.3843 145.605 137.758C149.831 176.057 149.435 237.733 144.813 277.75C139.002 327.935 123.55 371.122 105.06 388.951C102.683 391.196 97.2682 394.894 92.91 397.139C86.5707 400.573 83.7972 401.233 77.0618 401.101C72.7036 400.969 66.7605 400.045 63.855 399.12C63.855 399.12 63.855 399.12 63.855 399.12ZM83.6656 344.312C98.3252 335.331 108.759 301.918 111.928 254.638C114.305 219.111 114.569 202.603 113.117 173.416C110.211 109.495 101.891 73.4404 86.9673 60.3657C81.9487 55.8754 80.3639 55.215 74.817 55.215C69.9305 55.215 67.5533 56.0074 64.1195 58.7809C51.309 69.3463 43.3849 89.9489 38.6304 124.551C31.2346 179.227 33.7439 261.241 44.0452 302.842C47.4789 316.842 54.7427 333.878 59.4972 339.029C67.025 347.217 75.8735 349.198 83.6656 344.312C83.6656 344.312 83.6656 344.312 83.6656 344.312Z"
        fill="currentColor" transform="translate(1742.094 760.813)" />
      <path
        d="M50.7914 383.242C49.0745 380.601 48.8103 359.074 49.2066 218.025C49.4707 128.88 49.2066 55.7139 48.6783 55.3176C48.0179 54.9214 37.5846 54.129 25.4343 53.4687C6.15237 52.5443 3.11481 52.148 1.53 49.9029C0.20932 48.0539 -0.18689 42.375 0.07724 24.942C0.07724 24.942 0.47345 2.49048 0.47345 2.49048C0.47345 2.49048 3.77515 0.90564 3.77515 0.90564C6.15237 -0.150879 10.2465 -0.282959 18.3026 0.50946C24.5098 1.1698 41.1504 2.22632 55.2817 3.15082C118.41 6.71661 127.259 7.37695 128.976 8.96179C131.353 11.207 131.881 52.5443 129.636 54.7894C128.447 55.978 121.712 56.5063 106.524 56.5063C106.524 56.5063 84.997 56.6384 84.997 56.6384C84.997 56.6384 84.3366 218.818 84.3366 218.818C83.8084 354.32 83.4122 381.129 81.8274 382.054C80.2425 383.11 60.0361 386.148 54.8855 386.148C53.6969 386.148 51.8479 384.827 50.7914 383.242C50.7914 383.242 50.7914 383.242 50.7914 383.242Z"
        fill="currentColor" transform="translate(476.739 761.37)" />
      <path
        d="M12.8105 367.809C6.86755 366.885 1.849 365.432 1.1886 364.376C0.52832 363.319 0 285.135 0 182.65C0 6.07513 0 2.77344 2.50928 1.32068C3.96204 0.660339 10.8296 0 17.6971 0C28.7908 0 30.5077 0.26416 31.6963 2.50928C32.6207 4.2262 33.017 63.5247 33.017 184.895C33.017 306.266 32.6207 365.564 31.6963 367.281C30.1115 370.187 28.1305 370.187 12.8105 367.809C12.8105 367.809 12.8105 367.809 12.8105 367.809Z"
        fill="currentColor" transform="translate(1686.295 773.766)" />
      <path
        d="M62.6527 363.732C54.5966 361.619 47.2007 356.468 38.8804 347.355C34.126 342.205 30.296 337.318 30.296 336.394C30.296 335.601 29.5036 334.148 28.4471 333.356C25.6736 331.111 19.5985 318.168 15.6365 306.15C11.4103 293.604 6.12756 268.775 3.09003 248.04C-0.21167 225.192 -0.34375 222.551 0.316589 178.704C0.976929 131.952 1.10901 130.368 7.97656 94.0488C14.3158 59.8433 29.8998 26.298 45.8801 12.1667C55.5211 3.71436 64.6337 0.148499 77.1802 0.0164185C84.7081 -0.115662 89.0663 0.544678 92.236 2.12952C94.7452 3.31812 97.3866 4.37469 98.179 4.37469C100.952 4.37469 112.046 14.2798 118.121 22.0718C135.951 45.0516 149.686 94.7092 152.987 148.065C154.176 168.139 153.516 214.891 151.799 234.173C147.572 278.68 134.102 320.281 116.536 342.469C104.254 358.053 93.5566 364.128 77.1802 364.524C71.3692 364.656 64.8979 364.26 62.6527 363.732C62.6527 363.732 62.6527 363.732 62.6527 363.732ZM85.1041 314.735C97.5185 308.659 107.159 287.793 113.499 253.323C118.781 224.004 120.234 158.762 116.14 132.481C109.801 91.1434 105.178 74.2386 96.8582 61.8243C88.9341 49.8061 77.5762 46.1082 67.9353 52.7116C60.9357 57.466 58.5585 60.5036 53.5399 71.069C47.0685 84.6721 46.4082 86.521 43.3706 99.8599C31.8807 151.63 33.3334 239.192 46.4082 281.453C49.5778 291.755 55.2568 303.245 59.615 308.395C63.3129 312.753 72.0294 317.376 76.3876 317.376C78.2366 317.376 82.0666 316.187 85.1041 314.735C85.1041 314.735 85.1041 314.735 85.1041 314.735Z"
        fill="currentColor" transform="translate(613.983 769.391)" />
      <path
        d="M84.0295 354.735C67.389 353.282 28.0327 349.584 14.958 348.263C9.01489 347.735 3.20398 346.546 2.14734 345.622C-0.625977 343.245 -0.758057 302.568 2.01538 294.776C3.0719 291.87 4.92078 285.927 6.1095 281.569C7.2981 277.211 8.75085 272.456 9.41113 271.004C11.3922 265.721 27.3724 214.61 32.5231 197.045C33.7117 192.687 36.2209 185.027 37.8058 179.877C40.5792 171.292 44.0129 159.934 48.5033 144.218C49.5598 140.652 51.0126 136.426 51.673 134.974C52.2012 133.521 53.3898 129.955 54.0502 127.049C54.7104 124.144 56.9557 116.484 58.9366 109.881C63.6912 94.2965 66.0684 86.2404 68.1814 78.1843C69.106 74.6184 71.219 66.8264 72.6718 61.1475C74.2566 55.3365 75.4452 49.7896 75.4452 48.7331C75.4452 47.0162 71.0869 46.8842 40.9755 47.6765C15.2222 48.3369 6.1095 48.2048 4.65674 47.0162C3.20398 45.8276 2.80774 41.2052 2.80774 25.8853C2.80774 4.4903 3.6001 2.24518 10.4677 2.24518C12.4487 2.24518 35.0323 1.58484 60.6536 0.792419C93.9347 -0.26416 107.802 -0.26416 108.858 0.792419C109.651 1.58484 110.443 10.6975 110.839 22.9799C110.839 22.9799 111.368 43.8466 111.368 43.8466C111.368 43.8466 97.3684 92.0514 97.3684 92.0514C89.7085 118.597 82.1807 144.482 80.7279 149.501C79.1431 154.652 77.4261 160.595 76.7659 162.708C76.2375 164.953 71.7473 179.48 66.8607 195.064C54.5784 234.685 52.4653 241.42 47.7109 256.476C37.2775 289.229 34.6361 300.058 36.2209 301.643C37.2775 302.7 49.9561 304.021 72.0114 305.605C96.3119 307.19 106.745 308.379 108.066 309.699C110.443 312.077 110.575 352.225 108.198 354.603C106.481 356.319 101.991 356.319 84.0295 354.735C84.0295 354.735 84.0295 354.735 84.0295 354.735Z"
        fill="currentColor" transform="translate(1550.099 778.124)" />
      <path
        d="M52.8473 339.206C40.8291 335.64 32.3768 330.489 24.981 322.037C12.9628 308.434 7.54797 294.963 3.45386 268.682C1.07666 253.362 0.8125 243.06 0.284302 130.142C-0.244019 12.0735 -0.244019 8.11145 2.13318 5.73425C4.24634 3.62115 6.62354 3.22498 16.9248 3.22498C23.5282 3.22498 29.9995 3.88531 31.0562 4.54565C32.7729 5.60217 33.1692 21.8466 33.6975 132.916C34.3578 251.117 34.6219 260.625 36.8671 267.361C43.0742 286.379 52.3191 295.095 66.3182 295.095C77.8081 295.095 87.317 286.247 91.2791 271.587C93.6564 263.267 93.7883 254.154 94.4487 133.576C95.2411 -16.4532 92.996 0.583618 112.146 0.583618C118.749 0.583618 124.956 1.11188 125.881 1.64014C127.202 2.56464 127.598 27.7896 127.598 130.803C127.598 252.173 127.466 259.569 124.956 273.568C122.183 289.416 115.183 308.698 108.844 318.075C96.2976 336.697 73.582 345.281 52.8473 339.206C52.8473 339.206 52.8473 339.206 52.8473 339.206Z"
        fill="currentColor" transform="translate(1397.706 782.427)" />
      <path
        d="M1.71686 340.085C0.396179 338.764 0 303.106 0 171.038C0 22.1974 0.26416 3.44373 1.98102 1.59479C3.69788 -0.122131 6.99963 -0.254211 21.5271 0.274109C44.5069 1.19855 69.864 3.31165 72.5054 4.7644C73.694 5.29266 77.5239 7.27368 81.0898 8.85852C93.108 14.8016 104.07 28.0084 111.333 45.7054C115.824 56.6671 117.408 63.0063 119.522 80.0432C124.804 120.192 119.125 154.926 102.353 185.83C99.4472 191.112 88.2214 201.017 81.0898 204.451C72.6374 208.677 62.9965 210.79 46.8842 211.847C46.8842 211.847 33.6774 212.771 33.6774 212.771C33.6774 212.771 33.017 275.108 33.017 275.108C32.6208 315.256 31.8284 337.972 31.036 338.764C28.7908 341.01 3.56586 342.198 1.71686 340.085C1.71686 340.085 1.71686 340.085 1.71686 340.085ZM64.4493 164.038C69.3358 161.529 75.675 154.397 78.8447 147.926C83.7312 138.417 85.184 128.248 85.184 103.155C85.184 80.1752 85.0519 78.9866 81.354 68.5532C76.7316 55.6105 70.2603 48.2148 61.6758 45.8375C58.6383 44.9131 51.1104 44.3848 44.9032 44.6489C44.9032 44.6489 33.6774 45.0451 33.6774 45.0451C33.6774 45.0451 33.2812 104.476 33.2812 104.476C33.0171 159.944 33.1492 164.038 35.2623 165.623C38.2998 168 59.1666 166.812 64.4493 164.038C64.4493 164.038 64.4493 164.038 64.4493 164.038Z"
        fill="currentColor" transform="translate(793.516 780.888)" />
      <path
        d="M1.58484 325.151C0.396179 324.755 0 289.889 0 164.425C0 76.3353 0.396179 3.3017 0.792419 2.1131C1.45276 0.26416 4.88654 0 24.9608 0C47.4124 0 69.2036 1.84894 71.9771 3.96204C72.7694 4.4903 74.8825 5.28271 76.9956 5.81097C82.1462 6.99963 96.6737 21.7912 101.164 30.3756C108.56 44.639 112.918 62.9965 114.371 86.1083C115.956 111.333 110.673 141.313 101.428 158.746C99.3151 162.84 94.1644 169.575 90.2024 173.669C90.2024 173.669 82.9387 181.197 82.9387 181.197C82.9387 181.197 89.278 203.121 89.278 203.121C92.7117 215.271 96.2776 227.817 97.202 231.119C98.1265 234.421 101.692 246.307 104.994 257.533C108.428 268.758 111.465 279.192 111.862 280.645C112.786 284.21 118.465 302.964 120.842 310.36C124.804 322.378 123.351 323.567 103.805 323.567C86.7686 323.567 87.429 324.095 80.5615 299.134C79.9011 297.021 77.2598 287.776 74.6184 278.663C71.9771 269.551 68.4112 256.872 66.5623 250.269C64.8453 243.797 62.8643 237.194 62.204 235.741C61.5436 234.289 59.6947 228.081 58.1099 221.874C56.5251 215.667 54.6761 209.196 54.0158 207.347C53.4875 205.498 52.2989 201.536 51.5065 198.498C51.5065 198.498 50.0538 192.819 50.0538 192.819L42.2617 192.819L34.3376 192.819C34.3376 192.819 34.3376 256.608 34.3376 256.608C34.3376 305.605 33.9415 320.925 32.7529 322.51C31.4322 324.095 27.7343 324.755 17.1688 325.151C9.50891 325.548 2.50928 325.548 1.58484 325.151C1.58484 325.151 1.58484 325.151 1.58484 325.151ZM61.4118 146.728C68.5435 143.558 73.1659 137.219 76.8638 125.333C79.5051 116.88 79.9014 112.918 79.7693 95.7494C79.6372 67.883 75.411 54.28 64.5814 46.7521C59.5629 43.3184 57.7139 42.9222 46.6202 42.5259C46.6202 42.5259 34.3379 41.9977 34.3379 41.9977C34.3379 41.9977 34.3379 94.6928 34.3379 94.6928C34.3379 123.748 34.7341 147.916 35.2624 148.312C37.2434 150.293 56.1291 149.105 61.4118 146.728C61.4118 146.728 61.4118 146.728 61.4118 146.728Z"
        fill="currentColor" transform="translate(934.828 786.973)" />
      <path
        d="M64.144 324.642C33.2401 318.567 11.5809 281.588 3.26074 221.1C-1.36169 188.083 -0.965454 124.03 3.78894 100.258C12.3734 58.3927 19.5051 39.1108 32.1836 23.2626C37.8625 16.1309 47.6355 7.28235 52.2579 5.03723C54.6351 3.84863 58.2009 2.13171 60.0499 1.20728C62.295 0.150696 67.8419 -0.245483 75.8981 0.150696C90.2935 0.678955 98.8779 3.98065 108.651 12.5651C137.574 38.1863 151.441 92.7303 149.328 172.235C148.139 217.667 143.121 247.118 132.291 274.588C116.839 313.416 93.5952 330.453 64.144 324.642C64.144 324.642 64.144 324.642 64.144 324.642ZM84.4827 281.059C95.8405 275.645 105.878 254.646 110.764 225.723C115.254 199.838 116.575 161.142 114.066 128.125C111.689 97.4848 107.462 77.5425 99.9346 62.2227C86.8599 35.5449 64.9365 35.9411 51.0693 63.0151C45.7866 73.1843 42.485 84.5422 38.655 104.881C35.8816 119.276 35.6174 124.691 35.4854 164.972C35.4854 210.271 36.0137 217.931 41.4285 240.25C49.4846 274.588 65.861 290.172 84.4827 281.059C84.4827 281.059 84.4827 281.059 84.4827 281.059Z"
        fill="currentColor" transform="translate(1069.05 787.086)" />
      <path
        d="M4.49036 317.374C0.13208 314.468 0 311.827 0 157.703C0 37.2574 0.39624 4.10834 1.71692 2.39148C3.16968 0.410461 6.47131 0.146301 31.036 0.0142212C61.0154 -0.117798 65.6378 0.542542 79.3729 7.41003C89.278 12.4286 103.806 27.6165 110.013 39.5026C124.936 68.0292 132.2 106.461 132.464 159.288C132.596 189.532 131.276 206.304 126.521 229.284C120.314 260.32 109.484 283.96 95.089 298.62C79.1088 314.864 67.3547 318.43 29.7153 318.43C16.6406 318.43 5.28271 317.902 4.49036 317.374C4.49036 317.374 4.49036 317.374 4.49036 317.374ZM65.506 271.15C76.9958 265.207 85.7124 250.283 91.6554 225.983C96.2778 206.701 97.9946 190.06 97.9946 160.741C98.1267 127.196 94.4288 93.6505 89.6744 84.4057C89.014 83.085 88.4858 81.104 88.4858 80.0474C88.4858 76.3495 80.4297 61.5579 75.0149 55.2187C72.1094 51.7849 66.8267 47.4267 63.1287 45.5777C57.5819 42.8043 55.2046 42.4081 45.8278 42.6722C45.8278 42.6722 34.9983 43.0684 34.9983 43.0684L34.6021 158.892L34.3379 274.716C34.3379 274.716 41.2054 275.112 41.2054 275.112C51.3746 275.64 59.2987 274.451 65.506 271.15C65.506 271.15 65.506 271.15 65.506 271.15Z"
        fill="currentColor" transform="translate(1243.867 792.109)" />
      <path
        d="M4.3324 538.685L0.502441 534.723C0.502441 534.723 0.106323 472.387 0.106323 472.387C-0.157837 438.049 0.106323 319.584 0.502441 208.912C0.502441 208.912 1.427 7.63988 1.427 7.63988C1.427 7.63988 4.59656 4.60233 4.59656 4.60233C8.69067 0.508217 14.3696 -0.548325 28.5009 0.24408C39.7267 0.904419 39.9908 0.904419 44.4811 5.923C44.4811 5.923 49.1035 10.9416 49.1035 10.9416C49.1035 10.9416 48.3112 98.1065 48.3112 98.1065C47.7828 146.047 47.3866 263.984 47.3866 360.129C47.3866 360.129 47.3866 535.119 47.3866 535.119C47.3866 535.119 43.5566 538.949 43.5566 538.949C39.7267 542.779 39.5946 542.779 24.0106 542.779C24.0106 542.779 8.29443 542.779 8.29443 542.779L4.3324 538.685L4.3324 538.685Z"
        fill="currentColor" transform="translate(1133.088 100.239)" />
      <path
        d="M88.2214 535.404L83.8632 531.574C83.8632 531.574 84.3915 303.756 84.3915 303.756C84.6556 178.556 84.5236 73.2977 83.9952 69.864C82.8066 62.204 76.0712 55.0723 68.9396 53.8838C66.2981 53.4875 51.7706 52.6951 36.8469 52.0348C21.7913 51.3745 8.32031 50.1858 6.86755 49.3934C0.792358 46.2238 0 43.0542 0 24.4326C0 7.26374 0.13208 6.73547 3.43372 3.43377C3.43372 3.43377 6.86755 0 6.86755 0C6.86755 0 24.1685 0.924477 24.1685 0.924477C33.8094 1.45275 47.2804 2.37723 54.1479 3.03757C61.0154 3.69791 73.5619 4.62238 81.8822 5.01859C101.692 5.94306 143.558 9.37683 154.784 10.9616C159.67 11.7541 167.594 12.2823 172.613 12.2823C177.499 12.2823 188.989 13.2068 198.102 14.2633C220.686 16.9047 221.082 17.3009 221.61 38.4318C222.138 55.3365 221.082 59.8268 215.931 63.2606C212.894 65.2416 211.045 65.2416 189.782 63.2606C177.103 62.072 162.312 61.1475 156.765 61.1475C147.388 61.1475 146.331 61.4116 142.105 65.1095C139.596 67.3547 136.955 71.0526 136.162 73.4298C134.049 80.5615 133.521 117.408 132.596 326.604C131.672 550.195 132.332 535.272 122.955 537.913C120.314 538.573 112.39 539.234 105.39 539.234C92.976 539.234 92.3156 539.102 88.2214 535.404C88.2214 535.404 88.2214 535.404 88.2214 535.404Z"
        fill="currentColor" transform="translate(1229.34 103.785)" />
      <path
        d="M4.88647 505.556L0 500.934C0 500.934 0.13208 334 0.13208 334C0.13208 242.213 0.6604 131.408 1.1886 87.9573C1.1886 87.9573 2.24512 8.84856 2.24512 8.84856C2.24512 8.84856 6.99963 4.35825 6.99963 4.35825C11.0938 0.660339 12.8105 0 18.3574 0C21.9233 0 27.7343 0.528275 31.3002 1.32068C34.7339 1.98102 43.0542 3.56584 49.5255 4.62238C59.6947 6.2072 74.4863 8.84856 120.842 17.3009C125.201 17.9612 131.144 19.1499 134.049 19.8102C136.955 20.4705 149.765 22.9798 162.444 25.3571C190.442 30.5077 191.895 31.4322 193.348 44.9031C194.668 57.3175 192.423 71.3167 188.593 74.4864C184.895 77.5239 179.348 77.1277 143.954 71.3167C93.3721 62.9964 69.7319 59.4306 65.3737 59.4306C59.4307 59.4306 52.0348 65.7699 50.1859 72.3733C49.3934 75.4108 48.8652 102.881 48.8652 144.614C48.8652 211.837 48.8652 211.969 51.9027 217.12C57.1854 226.497 61.2795 227.685 99.7114 231.119C108.428 231.779 125.729 233.628 138.011 235.081C150.426 236.534 164.557 238.119 169.575 238.515C177.367 239.175 179.348 239.835 182.518 243.005C186.216 246.703 186.216 246.967 186.216 263.079C186.216 276.947 185.82 279.984 183.575 283.682C180.933 287.908 180.933 287.908 170.5 287.908C164.689 287.908 143.822 286.059 123.88 283.946C71.3168 278.135 62.072 277.739 56.9213 280.777C54.6761 282.097 51.6385 285.663 50.1859 288.569C47.6765 293.851 47.5444 297.021 47.5444 367.413C47.5444 446.258 47.5444 446.39 54.412 452.465C55.9968 454.05 58.6382 455.635 60.0909 456.163C61.5437 456.691 90.2025 457.087 123.748 456.955C192.027 456.823 190.178 456.559 192.819 466.068C193.48 468.709 194.14 475.841 194.14 482.048C194.14 491.821 193.744 493.934 190.838 498.161C186.876 503.971 186.48 503.971 147.916 505.16C133.785 505.556 109.352 506.481 93.7683 507.273C78.1843 507.934 52.8273 508.858 37.6394 509.254C37.6394 509.254 9.77307 510.179 9.77307 510.179L4.88647 505.556L4.88647 505.556Z"
        fill="currentColor" transform="translate(1497.438 129.274)" />
      <path
        d="M6.60339 526.052C4.62238 524.995 2.50928 523.146 1.98102 521.826C1.32068 520.505 0.660339 406.002 0.396179 267.463C0.396179 267.463 0 15.477 0 15.477C0 15.477 4.4903 10.9867 4.4903 10.9867C8.18823 7.28877 10.0372 6.49637 17.3009 5.83602C78.5804 0.025032 87.6932 -0.503242 102.485 0.289169C119.39 1.08157 131.804 3.855 143.558 9.66599C147.256 11.5149 150.69 12.9677 151.218 12.9677C153.727 12.9677 175.254 28.4197 182.65 35.6834C193.216 45.9847 198.102 52.324 204.045 63.5497C227.157 107.132 230.723 158.903 214.082 208.692C206.29 231.54 195.461 248.445 177.103 265.746C160.991 280.802 140.124 292.291 122.955 295.593C119.125 296.254 115.56 297.31 114.899 297.706C114.107 298.102 102.089 298.895 88.0894 299.291C63.1285 300.216 62.6002 300.348 57.9778 303.781C48.3369 311.045 48.8652 305.102 48.9973 417.624C49.2614 506.374 48.9973 518.92 47.1483 522.486C46.0917 524.599 44.1107 526.712 43.0542 527.24C38.5638 528.957 10.1693 528.033 6.60339 526.052C6.60339 526.052 6.60339 526.052 6.60339 526.052ZM112.39 248.973C128.766 244.087 137.483 238.936 148.048 228.371C165.349 210.938 174.858 187.033 176.707 156.658C177.499 143.451 175.122 117.83 173.009 115.32C172.349 114.66 171.82 113.075 171.82 111.755C171.82 106.208 160.066 84.8127 152.538 76.6245C144.746 67.908 132.2 57.8708 129.426 57.8708C128.502 57.8708 126.785 57.0784 125.729 56.1539C124.54 55.0974 119.917 53.2484 115.427 51.9277C108.296 49.8147 104.201 49.6826 85.8439 50.3429C66.0338 51.0033 64.3169 51.3995 58.6379 54.5691C54.2797 57.2105 52.0345 59.7197 50.0535 64.078C47.4122 70.0211 47.4122 71.6059 48.6008 153.488C49.5253 223.484 50.0535 237.351 51.6383 240.125C58.3738 251.482 60.8831 252.275 85.976 251.482C97.3339 251.086 109.088 250.03 112.39 248.973C112.39 248.973 112.39 248.973 112.39 248.973Z"
        fill="currentColor" transform="translate(860.738 108.382)" />
      <path
        d="M99.3151 504.105C79.3729 501.332 62.8644 492.747 42.2618 474.126C29.9794 463.032 17.3009 443.354 12.1503 427.109C11.2258 424.204 10.0372 420.638 9.37683 419.185C8.05615 415.62 5.81097 405.186 4.35822 394.753C2.24518 379.961 1.58484 348.397 0.792419 195.33C0.792419 195.33 0 46.7537 0 46.7537C0 46.7537 3.56586 43.0557 3.56586 43.0557C7.39581 39.3578 15.1878 36.4524 28.9229 33.9431C38.1677 32.2262 44.1107 33.811 46.8842 38.6975C48.0728 40.8106 48.601 82.8082 49.2614 215.801C50.0538 407.299 49.3934 393.828 58.1099 412.318C66.2982 430.015 78.3163 443.486 91.3911 449.825C97.8624 452.995 100.504 453.523 114.899 453.919C125.729 454.315 132.596 453.919 135.37 452.863C145.011 449.165 149.105 446.92 155.18 442.165C167.198 432.656 174.726 420.11 179.877 400.696C179.877 400.696 182.782 390.13 182.782 390.13C182.782 390.13 182.254 201.273 182.254 201.273C181.858 14.1329 181.858 12.416 184.499 8.85014C187.801 4.49189 188.593 4.0957 201.668 1.85053C217.252 -0.922897 220.157 -0.790825 225.044 3.69949C225.044 3.69949 229.402 7.52946 229.402 7.52946C229.402 7.52946 229.798 203.386 229.798 203.386C230.195 428.958 231.119 410.733 217.648 441.241C210.781 457.221 196.385 474.258 179.877 486.408C157.953 502.52 130.615 508.595 99.3151 504.105C99.3151 504.105 99.3151 504.105 99.3151 504.105Z"
        fill="currentColor" transform="translate(562.132 126.763)" />
      <path
        d="M7.26392 447.436C-0.131958 443.21 0.00012207 444.266 0.00012207 392.099C0.00012207 365.554 0.660522 268.088 1.45288 175.508C1.45288 175.508 2.90564 7.12119 2.90564 7.12119C2.90564 7.12119 6.33948 3.42328 6.33948 3.42328C11.6222 -2.12358 12.9429 -1.85944 61.4117 11.2153C75.1469 14.9132 79.6372 15.9697 90.0706 18.2149C108.692 22.1769 128.899 28.3841 132.2 31.1575C133.257 32.082 134.974 32.8744 135.898 32.8744C138.672 32.8744 157.821 43.3078 167.198 49.9112C185.16 62.4577 206.422 87.1544 214.479 104.587C223.195 123.473 227.157 142.227 227.157 164.546C227.157 185.545 224.78 198.62 218.573 212.091C209.328 232.165 198.63 244.447 178.952 257.654C164.689 267.163 162.048 271.389 162.84 282.483C163.236 290.011 164.557 293.312 172.349 308.236C193.216 348.121 232.44 428.022 232.44 430.795C232.44 438.191 227.95 439.908 204.706 441.625C192.423 442.549 191.895 442.417 187.933 439.116C185.688 437.267 182.914 433.437 181.594 430.795C175.386 417.192 122.559 312.727 116.484 302.161C115.031 299.52 113.05 295.954 111.994 294.237C108.296 287.502 102.749 281.162 98.1267 278.389C94.0326 275.747 90.995 275.219 77.7882 274.823C63.7889 274.295 61.808 274.559 57.7139 277.068C48.7333 282.615 48.8654 281.162 48.4691 365.025C48.0729 444.266 48.0729 444.53 42.262 447.04C38.432 448.757 10.0374 449.021 7.26392 447.436C7.26392 447.436 7.26392 447.436 7.26392 447.436ZM131.672 230.844C141.445 226.75 144.218 225.297 149.765 221.071C164.821 209.581 173.934 195.714 177.103 179.734C178.952 170.093 178.028 142.887 175.651 135.887C174.726 133.378 171.556 126.246 168.519 120.039C164.029 110.795 160.859 106.568 150.558 96.135C143.69 89.2674 135.898 82.3999 133.389 81.0792C121.106 74.7399 117.937 73.4193 110.541 71.042C98.9191 67.3441 77.9202 63.25 70.3923 63.25C61.9399 63.25 55.9969 66.9479 52.6952 74.3437C50.318 79.6264 50.1859 84.1168 50.0538 146.585C49.7897 206.016 50.0538 213.543 51.9028 217.373C56.3931 225.958 62.4683 228.203 88.4856 230.844C105.39 232.561 127.446 232.561 131.672 230.844C131.672 230.844 131.672 230.844 131.672 230.844Z"
        fill="currentColor" transform="translate(1753.65 179.603)" />
      <path
        d="M59.2061 417.147C49.5652 415.563 36.0942 410.148 26.5853 403.941C19.0575 399.054 5.19031 386.111 1.4924 380.565C-1.94138 375.15 0.435852 369.339 9.81268 359.83C22.3592 347.151 25.5288 347.019 41.7732 358.773C53.7914 367.622 62.7719 371.056 75.8467 371.848C101.072 373.565 118.241 364.056 129.466 342.529C139.768 322.851 139.239 329.454 138.711 217.064C138.447 161.86 138.051 116.297 137.787 115.9C137.522 115.372 137.258 91.996 137.258 63.7335C137.258 63.7335 137.126 12.4911 137.126 12.4911C137.126 12.4911 140.296 9.32144 140.296 9.32144C143.862 5.88766 159.182 1.00114 169.747 0.20874C175.954 -0.319534 176.747 -0.0553894 179.784 3.51044C179.784 3.51044 183.086 7.47249 183.086 7.47249C183.086 7.47249 184.01 49.6022 184.01 49.6022C184.407 72.7141 185.199 140.597 185.595 200.556C186.388 308.588 186.388 309.644 183.614 324.7C177.407 357.057 170.275 373.301 155.352 388.621C142.145 402.092 128.278 410.28 110.184 415.431C102.26 417.676 69.6395 418.732 59.2061 417.147C59.2061 417.147 59.2061 417.147 59.2061 417.147Z"
        fill="currentColor" transform="translate(310.239 192.854)" />
    </g>
  </g>
</svg>